#!OML:ASF H:\Dans Jumps\Project 1\Capture day 1\Session 1\subject.ASF
:FULLY-SPECIFIED
:DEGREES
387
root 0.688722 17.5439 -14.7692 9.84147 -1.30643 -1.28898
lowerback 3.08162 -0.142416 -0.121341
upperback 6.58245 -0.250776 1.47009
thorax 5.08492 -0.174695 1.58677
lowerneck -12.4502 0.732133 -1.83339
upperneck 33.5777 1.16666 1.11366
head 13.3375 0.417129 0.931682
rclavicle -4.37326e-015 1.43125e-014
rhumerus -15.4891 2.39694 -88.2074
rradius 30.2765
rwrist 26.6119
rhand -17.4203 -26.2892
rfingers 7.12502
rthumb 8.82981 -56.0845
lclavicle -4.37326e-015 1.43125e-014
lhumerus -14.4238 -18.5917 92.641
lradius 24.928
lwrist 9.94667
lhand -24.6868 -3.41019
lfingers 7.12502
lthumb 1.81407 26.5618
rfemur -23.4021 -2.47279 19.5904
rtibia 27.6133
rfoot -12.6998 -4.76285
rtoes 11.2973
lfemur -22.3381 6.6172 -19.5904
ltibia 25.0092
lfoot -10.4805 6.12874
ltoes 6.47406
388
root 0.687936 17.5406 -14.7752 9.86173 -1.29661 -1.30822
lowerback 3.14303 -0.144654 -0.119836
upperback 6.59518 -0.253801 1.47832
thorax 5.06369 -0.176344 1.59455
lowerneck -12.4613 0.730606 -1.83658
upperneck 33.5093 1.16722 1.10807
head 13.3103 0.416842 0.929402
rclavicle -4.57205e-015 -5.36719e-015
rhumerus -15.4123 2.28568 -88.1015
rradius 30.3425
rwrist 26.5624
rhand -17.4663 -26.3079
rfingers 7.12502
rthumb 8.78541 -56.105
lclavicle -4.57205e-015 -5.36719e-015
lhumerus -14.3485 -18.3865 92.4817
lradius 24.9676
lwrist 9.91004
lhand -24.7363 -3.4073
lfingers 7.12502
lthumb 1.76625 26.5651
rfemur -23.4999 -2.4658 19.6174
rtibia 27.7165
rfoot -12.7203 -4.78053
rtoes 11.278
lfemur -22.4588 6.61298 -19.571
ltibia 25.149
lfoot -10.5115 6.14252
ltoes 6.4265
389
root 0.687188 17.537 -14.7812 9.881 -1.28943 -1.32818
lowerback 3.20845 -0.145712 -0.117806
upperback 6.60724 -0.255232 1.48704
thorax 5.03946 -0.177175 1.60257
lowerneck -12.4748 0.730064 -1.83359
upperneck 33.4434 1.17018 1.09488
head 13.2849 0.417366 0.923456
rclavicle 6.65929e-015 7.55382e-015
rhumerus -15.3397 2.16759 -87.9933
rradius 30.4088
rwrist 26.5147
rhand -17.5057 -26.3275
rfingers 7.12502
rthumb 8.74733 -56.1263
lclavicle 6.65929e-015 7.55382e-015
lhumerus -14.2876 -18.2102 92.3264
lradius 25.0244
lwrist 9.90782
lhand -24.7782 -3.39416
lfingers 7.12502
lthumb 1.72577 26.5786
rfemur -23.5998 -2.45909 19.6452
rtibia 27.8242
rfoot -12.7431 -4.79559
rtoes 11.254
lfemur -22.5815 6.61177 -19.5512
ltibia 25.2939
lfoot -10.5434 6.15659
ltoes 6.37427
390
root 0.686436 17.5332 -14.7875 9.90028 -1.2851 -1.3473
lowerback 3.27606 -0.146529 -0.118602
upperback 6.61883 -0.25635 1.4966
thorax 5.01351 -0.178005 1.61304
lowerneck -12.4898 0.731128 -1.82719
upperneck 33.3777 1.17639 1.07625
head 13.2599 0.419018 0.915279
rclavicle -4.77083e-015 3.77691e-015
rhumerus -15.2724 2.04719 -87.8828
rradius 30.4767
rwrist 26.4702
rhand -17.5548 -26.3381
rfingers 7.12502
rthumb 8.7 -56.1388
lclavicle -4.77083e-015 3.77691e-015
lhumerus -14.2387 -18.0535 92.174
lradius 25.0945
lwrist 9.9316
lhand -24.8109 -3.3862
lfingers 7.12502
lthumb 1.69416 26.5868
rfemur -23.703 -2.45218 19.6721
rtibia 27.9364
rfoot -12.7687 -4.80848
rtoes 11.2332
lfemur -22.7068 6.61549 -19.5332
ltibia 25.4429
lfoot -10.5785 6.1685
ltoes 6.32526
391
root 0.685725 17.5293 -14.7939 9.91951 -1.2839 -1.36615
lowerback 3.34773 -0.146811 -0.120868
upperback 6.63014 -0.256753 1.50691
thorax 4.98497 -0.178564 1.62514
lowerneck -12.5092 0.733859 -1.81794
upperneck 33.3125 1.18553 1.05405
head 13.2361 0.421825 0.905689
rclavicle 5.96354e-016 1.19271e-015
rhumerus -15.2052 1.92258 -87.7702
rradius 30.5398
rwrist 26.4314
rhand -17.6087 -26.3435
rfingers 7.12502
rthumb 8.64792 -56.1463
lclavicle 5.96354e-016 1.19271e-015
lhumerus -14.1969 -17.9105 92.0234
lradius 25.1735
lwrist 9.96701
lhand -24.8434 -3.38143
lfingers 7.12502
lthumb 1.66278 26.5918
rfemur -23.8102 -2.44448 19.6984
rtibia 28.0536
rfoot -12.7975 -4.81941
rtoes 11.2195
lfemur -22.8344 6.62151 -19.516
ltibia 25.5955
lfoot -10.6152 6.18115
ltoes 6.28174
392
root 0.685117 17.5254 -14.8006 9.93949 -1.28442 -1.38163
lowerback 3.42237 -0.147385 -0.127026
upperback 6.64112 -0.257528 1.5173
thorax 4.95445 -0.179491 1.63949
lowerneck -12.5298 0.7384 -1.81076
upperneck 33.2448 1.19735 1.03332
head 13.2115 0.425752 0.897423
rclavicle -1.17283e-014 2.78299e-015
rhumerus -15.1405 1.79798 -87.6556
rradius 30.605
rwrist 26.395
rhand -17.6522 -26.3562
rfingers 7.12502
rthumb 8.60596 -56.1608
lclavicle -1.17283e-014 2.78299e-015
lhumerus -14.1613 -17.7657 91.8735
lradius 25.2625
lwrist 9.99769
lhand -24.8659 -3.36599
lfingers 7.12502
lthumb 1.64104 26.6074
rfemur -23.9227 -2.43968 19.721
rtibia 28.1777
rfoot -12.8295 -4.82683
rtoes 11.2076
lfemur -22.965 6.62923 -19.5034
ltibia 25.7521
lfoot -10.6548 6.19357
ltoes 6.24518
393
root 0.684561 17.5212 -14.8076 9.96295 -1.28524 -1.39368
lowerback 3.49798 -0.148179 -0.134695
upperback 6.65161 -0.258519 1.52589
thorax 4.92288 -0.180538 1.65284
lowerneck -12.5507 0.744139 -1.80391
upperneck 33.1701 1.20981 1.01598
head 13.184 0.43042 0.890574
rclavicle -8.15017e-015 -7.35503e-015
rhumerus -15.0706 1.66781 -87.542
rradius 30.6646
rwrist 26.3636
rhand -17.6962 -26.3711
rfingers 7.12502
rthumb 8.56355 -56.1774
lclavicle -8.15017e-015 -7.35503e-015
lhumerus -14.1277 -17.6279 91.7224
lradius 25.3548
lwrist 10.022
lhand -24.8926 -3.34625
lfingers 7.12502
lthumb 1.61529 26.6274
rfemur -24.0453 -2.43708 19.7401
rtibia 28.3105
rfoot -12.8639 -4.83306
rtoes 11.1901
lfemur -23.1036 6.63508 -19.4952
ltibia 25.9147
lfoot -10.6964 6.20741
ltoes 6.21254
394
root 0.684079 17.5167 -14.815 9.9888 -1.28411 -1.39995
lowerback 3.57627 -0.149781 -0.145785
upperback 6.66107 -0.260498 1.5327
thorax 4.88876 -0.182171 1.66624
lowerneck -12.5704 0.750121 -1.79868
upperneck 33.0888 1.22155 1.00293
head 13.1533 0.435193 0.885501
rclavicle -1.2921e-015 3.97569e-015
rhumerus -14.9981 1.53106 -87.429
rradius 30.7202
rwrist 26.3407
rhand -17.7311 -26.4
rfingers 7.12502
rthumb 8.52988 -56.2077
lclavicle -1.2921e-015 3.97569e-015
lhumerus -14.0983 -17.4921 91.5711
lradius 25.453
lwrist 10.0353
lhand -25.0071 -3.44936
lfingers 7.12502
lthumb 1.50474 26.5251
rfemur -24.1776 -2.43854 19.7534
rtibia 28.4544
rfoot -12.8994 -4.83925
rtoes 11.1617
lfemur -23.2508 6.63943 -19.4942
ltibia 26.0866
lfoot -10.7406 6.22173
ltoes 6.17351
395
root 0.683672 17.5119 -14.8228 10.0171 -1.27935 -1.40479
lowerback 3.65959 -0.152323 -0.154413
upperback 6.66758 -0.263611 1.53841
thorax 4.8487 -0.184169 1.67713
lowerneck -12.5866 0.756302 -1.79278
upperneck 33.0031 1.23272 0.991496
head 13.1201 0.440071 0.880795
rclavicle -5.06901e-015 -4.37326e-015
rhumerus -14.9278 1.38606 -87.3163
rradius 30.7729
rwrist 26.3213
rhand -17.7599 -26.4337
rfingers 7.12502
rthumb 8.50209 -56.2426
lclavicle -5.06901e-015 -4.37326e-015
lhumerus -14.0749 -17.3653 91.4212
lradius 25.5522
lwrist 10.0437
lhand -25.1088 -3.51721
lfingers 7.12502
lthumb 1.40652 26.4579
rfemur -24.3206 -2.44339 19.7657
rtibia 28.6112
rfoot -12.9376 -4.84723
rtoes 11.1195
lfemur -23.4096 6.63937 -19.495
ltibia 26.2714
lfoot -10.7864 6.23827
ltoes 6.1308
396
root 0.683355 17.5066 -14.8311 10.0486 -1.27172 -1.41088
lowerback 3.74626 -0.15527 -0.15883
upperback 6.67296 -0.267209 1.54419
thorax 4.80557 -0.186184 1.68573
lowerneck -12.603 0.76221 -1.78571
upperneck 32.9129 1.24311 0.980235
head 13.0851 0.444817 0.8758
rclavicle -9.0447e-015 -3.77691e-015
rhumerus -14.8589 1.2378 -87.2035
rradius 30.8271
rwrist 26.3049
rhand -17.7983 -26.4668
rfingers 7.12502
rthumb 8.46503 -56.2771
lclavicle -9.0447e-015 -3.77691e-015
lhumerus -14.0555 -17.2632 91.2732
lradius 25.6519
lwrist 10.0641
lhand -25.2928 -3.69969
lfingers 7.12502
lthumb 1.22881 26.2765
rfemur -24.4761 -2.4494 19.7799
rtibia 28.7816
rfoot -12.9797 -4.85747
rtoes 11.0733
lfemur -23.5826 6.6373 -19.4952
ltibia 26.4717
lfoot -10.8351 6.25596
ltoes 6.07865
397
root 0.68314 17.5008 -14.84 10.0825 -1.26144 -1.41937
lowerback 3.83813 -0.159035 -0.159027
upperback 6.67723 -0.271874 1.55147
thorax 4.75836 -0.188542 1.69353
lowerneck -12.6217 0.768916 -1.77478
upperneck 32.8236 1.25584 0.962414
head 13.0511 0.450205 0.867956
rclavicle -6.75868e-015 1.21259e-014
rhumerus -14.7952 1.09035 -87.0893
rradius 30.8895
rwrist 26.2833
rhand -17.8252 -26.5065
rfingers 7.12502
rthumb 8.43907 -56.3179
lclavicle -6.75868e-015 1.21259e-014
lhumerus -14.0391 -17.1808 91.1284
lradius 25.7509
lwrist 10.1008
lhand -25.4375 -3.81543
lfingers 7.12502
lthumb 1.08901 26.1615
rfemur -24.6436 -2.45445 19.7967
rtibia 28.9659
rfoot -13.0251 -4.87088
rtoes 11.025
lfemur -23.7702 6.63149 -19.4931
ltibia 26.6896
lfoot -10.8842 6.27612
ltoes 6.03126
398
root 0.683052 17.4945 -14.8494 10.1168 -1.25199 -1.43111
lowerback 3.93499 -0.162599 -0.156068
upperback 6.68198 -0.276305 1.56135
thorax 4.70888 -0.190701 1.7023
lowerneck -12.6446 0.776242 -1.76143
upperneck 32.736 1.27111 0.937923
head 13.019 0.456119 0.857537
rclavicle -1.04362e-014 2.36554e-014
rhumerus -14.7367 0.944762 -86.9729
rradius 30.958
rwrist 26.2603
rhand -17.863 -26.5432
rfingers 7.12502
rthumb 8.40258 -56.3561
lclavicle -1.04362e-014 2.36554e-014
lhumerus -14.025 -17.1104 90.9878
lradius 25.8475
lwrist 10.1459
lhand -25.6006 -3.95817
lfingers 7.12502
lthumb 0.93151 26.0195
rfemur -24.8211 -2.45567 19.8164
rtibia 29.1638
rfoot -13.0732 -4.88658
rtoes 10.9835
lfemur -23.9702 6.62372 -19.488
ltibia 26.9256
lfoot -10.9349 6.3038
ltoes 5.98482
399
root 0.683138 17.4875 -14.8593 10.1503 -1.24647 -1.44536
lowerback 4.03855 -0.165526 -0.150412
upperback 6.68769 -0.279867 1.57254
thorax 4.65663 -0.192333 1.71093
lowerneck -12.6659 0.784701 -1.74758
upperneck 32.6412 1.28877 0.910372
head 12.9834 0.462814 0.846116
rclavicle 3.08116e-015 -6.55989e-015
rhumerus -14.6804 0.80326 -86.8568
rradius 31.0308
rwrist 26.2305
rhand -17.9158 -26.5722
rfingers 7.12502
rthumb 8.35159 -56.3871
lclavicle 3.08116e-015 -6.55989e-015
lhumerus -14.0135 -17.0441 90.8502
lradius 25.9439
lwrist 10.1966
lhand -25.7731 -4.12235
lfingers 7.12502
lthumb 0.764862 25.856
rfemur -25.0084 -2.45221 19.8378
rtibia 29.3759
rfoot -13.1234 -4.90219
rtoes 10.9489
lfemur -24.1806 6.61587 -19.4808
ltibia 27.1795
lfoot -10.9883 6.33975
ltoes 5.93502
